<svg width="128" height="128" xmlns="http://www.w3.org/2000/svg">

 <g>
  <title>background</title>
  <rect fill="none" id="canvas_background" height="402" width="582" y="-1" x="-1"/>
 </g>
 <g>
  <title>Layer 1</title>
  <path id="svg_1" fill="#ff89ff" d="m81.646,64l22.248,-22.249c3.48,-3.48 3.474,-9.131 -0.019,-12.623l-5.006,-5.005c-3.489,-3.49 -9.142,-3.499 -12.622,-0.019l-22.247,22.25l-22.247,-22.248c-3.484,-3.483 -9.133,-3.472 -12.624,0.018l-5.005,5.005c-3.491,3.492 -3.501,9.14 -0.018,12.623l22.248,22.248l-22.246,22.246c-3.483,3.484 -3.472,9.133 0.018,12.623l5.005,5.006c3.492,3.492 9.14,3.502 12.623,0.018l22.246,-22.246l22.247,22.246c3.48,3.481 9.131,3.475 12.622,-0.019l5.006,-5.006c3.489,-3.489 3.498,-9.142 0.019,-12.622l-22.248,-22.246z"/>
 </g>
</svg>